<svg width="370" height="345" viewBox="0 0 370 345" fill="none" xmlns="http://www.w3.org/2000/svg">
<g clip-path="url(#clip0_1109_2546)" filter="url(#filter0_d_1109_2546)">
<path d="M328.389 31.8087L258.069 3.70337L184.967 48.2752L111.865 3.70337L41.6101 31.8087L7.6416 112.62L63.2626 227.158L185.033 332.635L306.207 227.885L362.358 112.554L328.389 31.8087ZM92.5961 141.85L86.0407 139.337L87.6961 131.533L92.6623 141.85H92.5961ZM89.2191 124.061L112.99 11.2422L167.155 72.9418L114.381 150.182L98.8865 144.23L89.2191 123.994V124.061ZM95.5095 147.934L103.919 165.524L70.0166 215.188L85.0475 143.9L95.5095 147.934ZM101.8 150.38L111.666 154.216L106.899 161.16L101.734 150.38H101.8ZM116.169 155.935L242.309 204.607L185.033 324.303L109.282 166.053L116.169 156.001V155.935ZM118.884 152.034L170.399 76.6451L256.612 174.849L244.362 200.441L118.884 152.034ZM259.923 178.684L296.805 220.743L248.666 202.16L259.923 178.684ZM262.108 174.121L282.436 131.599L300.645 218.098L262.041 174.121H262.108ZM258.797 170.352L173.114 72.7434L186.026 53.8963L272.504 84.3162L280.913 124.193L258.797 170.352ZM277.602 86.1017L296.01 92.5825L284.157 117.315L277.602 86.1017ZM276.476 80.8113L261.578 10.118L323.556 34.9169L297.996 88.3502L276.476 80.7452V80.8113ZM271.378 79.0258L190.463 50.5236L256.81 10.0519L271.312 79.0258H271.378ZM169.936 69.1724L123.519 16.2681L181.788 51.7801L169.936 69.1062V69.1724ZM85.9745 117.315L46.5101 34.8507L108.488 10.0519L85.9083 117.183L85.9745 117.315ZM84.3853 124.788L81.6705 137.749L13.2699 111.364L43.4642 39.2815L84.3191 124.656L84.3853 124.788ZM80.6773 142.312L64.4545 219.156L14.7929 116.786L80.6111 142.18L80.6773 142.312ZM106.236 170.484L178.146 320.666L68.4274 225.835L106.236 170.484ZM246.613 206.327L300.248 227.025L191.853 320.666L246.547 206.327H246.613ZM285.68 124.722L300.314 94.1035L356.597 113.943L305.545 219.156L285.614 124.722H285.68ZM302.367 89.8711L326.535 39.3476L355.67 108.652L302.3 89.8711H302.367Z" fill="url(#paint0_linear_1109_2546)"/>
<path d="M184.967 337L60.2169 228.546L4 112.686L39.0942 29.2957L106.766 2.1823L106.634 2.05004L106.833 2.1823L112.196 0L184.967 44.3734L257.804 0L330.906 29.2957L366 112.752L308.393 230.464L185.033 337.066L184.967 337ZM113.057 166.185L184.967 316.5L237.674 206.26L117.295 159.837L112.991 166.185H113.057ZM72.7979 225.108L168.281 307.638L105.707 176.899L72.7979 225.108ZM248.269 210.36L201.719 307.638L293.891 227.951L248.269 210.36ZM253.169 200.176L285.416 212.609L260.717 184.437L253.169 200.176ZM21.4809 122.936L63.1966 208.906L76.837 144.296L21.4809 122.936ZM289.124 125.119L306.803 208.972L352.029 115.794L302.036 98.2035L289.124 125.119ZM265.948 173.526L294.752 206.327L281.112 141.783L265.948 173.526ZM87.4977 148.396L76.7046 199.581L100.145 165.26L93.126 150.513L87.4977 148.33V148.396ZM123.916 150.38L242.641 196.209L252.639 175.378L170.664 82.0016L123.916 150.38ZM177.22 72.4127L257.87 164.334L277.337 123.664L269.524 86.6968L187.218 57.7317L177.22 72.4127ZM101.337 141.717L113.123 146.28L162.983 73.2724L114.845 18.4504L92.6625 123.664L101.271 141.651L101.337 141.717ZM17.6404 109.446L79.2208 133.186L80.9424 125.119L43.6631 47.3493L17.5742 109.38L17.6404 109.446ZM281.973 91.1275L285.35 106.999L291.375 94.4341L281.973 91.1275ZM51.013 36.6362L84.6505 106.999L103.919 15.4084L50.9468 36.6362H51.013ZM306.87 87.9533L349.711 103.031L326.271 47.3493L306.87 87.9533ZM279.192 78.2321L296.143 84.1839L318.921 36.6362L265.948 15.4084L279.192 78.2321ZM198.011 49.6639L266.809 73.8675L254.427 15.2761L198.011 49.6639ZM140.205 30.2877L169.539 63.6835L177.021 52.7058L140.205 30.2877Z" fill="url(#paint1_linear_1109_2546)"/>
</g>
<defs>
<filter id="filter0_d_1109_2546" x="0" y="0" width="370" height="345" filterUnits="userSpaceOnUse" color-interpolation-filters="sRGB">
<feFlood flood-opacity="0" result="BackgroundImageFix"/>
<feColorMatrix in="SourceAlpha" type="matrix" values="0 0 0 0 0 0 0 0 0 0 0 0 0 0 0 0 0 0 127 0" result="hardAlpha"/>
<feOffset dy="4"/>
<feGaussianBlur stdDeviation="2"/>
<feComposite in2="hardAlpha" operator="out"/>
<feColorMatrix type="matrix" values="0 0 0 0 0 0 0 0 0 0 0 0 0 0 0 0 0 0 0.25 0"/>
<feBlend mode="normal" in2="BackgroundImageFix" result="effect1_dropShadow_1109_2546"/>
<feBlend mode="normal" in="SourceGraphic" in2="effect1_dropShadow_1109_2546" result="shape"/>
</filter>
<linearGradient id="paint0_linear_1109_2546" x1="7.6416" y1="168.169" x2="362.358" y2="168.169" gradientUnits="userSpaceOnUse">
<stop stop-color="#E1BC4C"/>
<stop offset="0.27" stop-color="#F9EC95"/>
<stop offset="0.29" stop-color="#F9EC95"/>
<stop offset="0.41" stop-color="#DFB74C"/>
<stop offset="0.44" stop-color="#DFB74C"/>
<stop offset="0.62" stop-color="#906117"/>
<stop offset="0.77" stop-color="#DCA24D"/>
<stop offset="1" stop-color="#E1BC4C"/>
</linearGradient>
<linearGradient id="paint1_linear_1109_2546" x1="4" y1="168.5" x2="366" y2="168.5" gradientUnits="userSpaceOnUse">
<stop stop-color="#E1BC4C"/>
<stop offset="0.27" stop-color="#F9EC95"/>
<stop offset="0.29" stop-color="#F9EC95"/>
<stop offset="0.41" stop-color="#DFB74C"/>
<stop offset="0.44" stop-color="#DFB74C"/>
<stop offset="0.62" stop-color="#906117"/>
<stop offset="0.77" stop-color="#DCA24D"/>
<stop offset="1" stop-color="#E1BC4C"/>
</linearGradient>
<clipPath id="clip0_1109_2546">
<rect width="362" height="337" fill="white" transform="translate(4)"/>
</clipPath>
</defs>
</svg>
